<svg width="185" height="185" viewBox="0 0 185 185" fill="none" xmlns="http://www.w3.org/2000/svg">
<path id="Vector" d="M92.5 0C117.033 0 140.56 9.74551 157.907 27.0926C175.254 44.4397 185 67.9675 185 92.5C185 117.033 175.254 140.56 157.907 157.907C140.56 175.254 117.033 185 92.5 185C67.9675 185 44.4397 175.254 27.0926 157.907C9.74551 140.56 0 117.033 0 92.5C0 67.9675 9.74551 44.4397 27.0926 27.0926C44.4397 9.74551 67.9675 0 92.5 0ZM80.9771 110.749L60.4289 90.1875C59.6923 89.4509 58.8178 88.8665 57.8553 88.4678C56.8928 88.0692 55.8612 87.864 54.8195 87.864C53.7777 87.864 52.7461 88.0692 51.7836 88.4678C50.8212 88.8665 49.9466 89.4509 49.21 90.1875C47.7223 91.6752 46.8865 93.693 46.8865 95.797C46.8865 97.9009 47.7223 99.9187 49.21 101.406L75.3743 127.571C76.1089 128.311 76.9827 128.899 77.9455 129.3C78.9082 129.701 79.9408 129.907 80.9837 129.907C82.0267 129.907 83.0593 129.701 84.022 129.3C84.9848 128.899 85.8586 128.311 86.5932 127.571L140.772 73.3789C141.518 72.6453 142.112 71.7712 142.519 70.807C142.926 69.8427 143.138 68.8074 143.143 67.7608C143.148 66.7142 142.945 65.677 142.547 64.709C142.149 63.741 141.564 62.8614 140.824 62.1209C140.085 61.3804 139.206 60.7937 138.238 60.3945C137.271 59.9954 136.234 59.7918 135.187 59.7954C134.14 59.7991 133.105 60.0099 132.14 60.4157C131.175 60.8216 130.301 61.4144 129.566 62.16L80.9771 110.749Z" fill="#98CB6D"/>
</svg>
