<svg width="79" height="79" viewBox="0 0 76 73" fill="none" xmlns="http://www.w3.org/2000/svg">
<g filter="url(#filter0_d_149_8818)">
<path fill-rule="evenodd" clip-rule="evenodd" d="M58.672 49.9002C64.007 46.3493 67.1802 41.5371 67.169 36.3339C67.1578 31.1307 63.9638 26.3323 58.6135 22.8044C53.269 19.2802 45.8474 17.0848 37.617 17.1025C29.3866 17.1203 21.9746 19.3478 16.6453 22.895C11.3103 26.446 8.13708 31.2581 8.14831 36.4613C8.15954 41.6645 11.3535 46.4629 16.7038 49.9908C22.0483 53.515 29.4699 55.7105 37.7003 55.6927C45.9307 55.6749 53.3428 53.4474 58.672 49.9002ZM37.7019 56.4494C54.418 56.4133 67.9496 47.4066 67.9257 36.3323C67.9018 25.258 54.3314 16.3098 37.6154 16.3459C20.8994 16.3819 7.36773 25.3887 7.39163 36.4629C7.41554 47.5372 20.9859 56.4854 37.7019 56.4494Z" fill="url(#paint0_linear_149_8818)" shape-rendering="crispEdges"/>
<path fill-rule="evenodd" clip-rule="evenodd" d="M60.0328 49.229C64.9277 45.6915 67.8637 40.8793 67.8524 35.6476C67.8411 30.4158 64.8844 25.6164 59.9742 22.1C55.0652 18.5845 48.251 16.3947 40.6949 16.411C33.1389 16.4273 26.3342 18.6465 21.4404 22.1832C16.5455 25.7207 13.6095 30.5329 13.6208 35.7646C13.6321 40.9964 16.5888 45.7958 21.499 49.3122C26.408 52.8277 33.2222 55.0175 40.7782 55.0012C48.3343 54.9849 55.139 52.7657 60.0328 49.229ZM40.7799 55.7578C56.1734 55.7246 68.633 46.7202 68.609 35.6459C68.5851 24.5717 56.0868 15.6211 40.6933 15.6543C25.2998 15.6876 12.8402 24.692 12.8641 35.7663C12.8881 46.8405 25.3864 55.7911 40.7799 55.7578Z" fill="url(#paint1_linear_149_8818)" shape-rendering="crispEdges"/>
<path fill-rule="evenodd" clip-rule="evenodd" d="M59.0371 46.1253C63.9321 42.5877 66.868 37.7756 66.8567 32.5438C66.8454 27.3121 63.8887 22.5127 58.9786 18.9963C54.0695 15.4807 47.2553 13.291 39.6993 13.3073C32.1432 13.3236 25.3385 15.5428 20.4447 19.0795C15.5498 22.617 12.6139 27.4292 12.6252 32.6609C12.6365 37.8927 15.5931 42.6921 20.5033 46.2085C25.4123 49.724 32.2265 51.9138 39.7826 51.8975C47.3386 51.8812 54.1433 49.662 59.0371 46.1253ZM39.7842 52.6541C55.1777 52.6209 67.6373 43.6165 67.6134 32.5422C67.5895 21.4679 55.0912 12.5174 39.6976 12.5506C24.3041 12.5839 11.8446 21.5883 11.8685 32.6625C11.8924 43.7368 24.3907 52.6874 39.7842 52.6541Z" fill="url(#paint2_linear_149_8818)" shape-rendering="crispEdges"/>
</g>
<path d="M38.8823 27.4304C38.8823 27.8521 38.7381 28.2184 38.4495 28.5291C38.161 28.8177 37.7947 28.9619 37.3508 28.9619H33.855C33.5664 28.9619 33.4221 29.1062 33.4221 29.3948V45.9749C33.4221 46.3967 33.2668 46.7629 32.956 47.0736C32.6675 47.3622 32.3124 47.5064 31.8906 47.5064H31.025C30.6033 47.5064 30.237 47.3622 29.9263 47.0736C29.6378 46.7629 29.4935 46.3967 29.4935 45.9749V29.3948C29.4935 29.1062 29.3492 28.9619 29.0607 28.9619H25.5315C25.1098 28.9619 24.7436 28.8177 24.4328 28.5291C24.1443 28.2184 24 27.8521 24 27.4304V26.5315C24 26.0876 24.1443 25.7214 24.4328 25.4328C24.7436 25.1443 25.1098 25 25.5315 25H37.3508C37.7947 25 38.161 25.1443 38.4495 25.4328C38.7381 25.7214 38.8823 26.0876 38.8823 26.5315V27.4304Z" fill="url(#paint3_linear_149_8818)"/>
<path d="M56.0076 27.4304C56.0076 27.8521 55.8522 28.2184 55.5415 28.5291C55.2529 28.8177 54.9089 28.9619 54.5094 28.9619H45.9196C45.6532 28.9619 45.52 29.1062 45.52 29.3948V33.8228C45.52 34.1335 45.6532 34.2889 45.9196 34.2889H53.3108C53.7547 34.2889 54.1209 34.4332 54.4095 34.7217C54.698 35.0103 54.8423 35.3654 54.8423 35.7871V36.7193C54.8423 37.1411 54.698 37.5073 54.4095 37.818C54.1209 38.1066 53.7547 38.2508 53.3108 38.2508H45.9196C45.6532 38.2508 45.52 38.384 45.52 38.6504V45.9749C45.52 46.3967 45.3647 46.7629 45.0539 47.0736C44.7654 47.3622 44.4102 47.5064 43.9885 47.5064H43.0563C42.6568 47.5064 42.3016 47.3622 41.9909 47.0736C41.7023 46.7629 41.5581 46.3967 41.5581 45.9749V26.5315C41.5581 26.0876 41.7023 25.7214 41.9909 25.4328C42.3016 25.1443 42.6568 25 43.0563 25H54.5094C54.9089 25 55.2529 25.1443 55.5415 25.4328C55.8522 25.7214 56.0076 26.0876 56.0076 26.5315V27.4304Z" fill="url(#paint4_linear_149_8818)"/>
<g filter="url(#filter1_d_149_8818)">
<path fill-rule="evenodd" clip-rule="evenodd" d="M38.7567 59.5071V66.3171H38V59.5071H38.7567Z" fill="url(#paint5_linear_149_8818)" shape-rendering="crispEdges"/>
<path fill-rule="evenodd" clip-rule="evenodd" d="M39.5126 2V8.81005H38.7559V2H39.5126Z" fill="url(#paint6_linear_149_8818)" shape-rendering="crispEdges"/>
</g>
<defs>
<filter id="filter0_d_149_8818" x="4.3649" y="12.5505" width="67.2712" height="49.9523" filterUnits="userSpaceOnUse" color-interpolation-filters="sRGB">
<feFlood flood-opacity="0" result="BackgroundImageFix"/>
<feColorMatrix in="SourceAlpha" type="matrix" values="0 0 0 0 0 0 0 0 0 0 0 0 0 0 0 0 0 0 127 0" result="hardAlpha"/>
<feOffset dy="3.0267"/>
<feGaussianBlur stdDeviation="1.51335"/>
<feComposite in2="hardAlpha" operator="out"/>
<feColorMatrix type="matrix" values="0 0 0 0 0.792157 0 0 0 0 0.768627 0 0 0 0 0.815686 0 0 0 1 0"/>
<feBlend mode="normal" in2="BackgroundImageFix" result="effect1_dropShadow_149_8818"/>
<feBlend mode="normal" in="SourceGraphic" in2="effect1_dropShadow_149_8818" result="shape"/>
</filter>
<filter id="filter1_d_149_8818" x="34.9733" y="2" width="7.56609" height="70.3705" filterUnits="userSpaceOnUse" color-interpolation-filters="sRGB">
<feFlood flood-opacity="0" result="BackgroundImageFix"/>
<feColorMatrix in="SourceAlpha" type="matrix" values="0 0 0 0 0 0 0 0 0 0 0 0 0 0 0 0 0 0 127 0" result="hardAlpha"/>
<feOffset dy="3.0267"/>
<feGaussianBlur stdDeviation="1.51335"/>
<feComposite in2="hardAlpha" operator="out"/>
<feColorMatrix type="matrix" values="0 0 0 0 0 0 0 0 0 0 0 0 0 0 0 0 0 0 0.25 0"/>
<feBlend mode="normal" in2="BackgroundImageFix" result="effect1_dropShadow_149_8818"/>
<feBlend mode="normal" in="SourceGraphic" in2="effect1_dropShadow_149_8818" result="shape"/>
</filter>
<linearGradient id="paint0_linear_149_8818" x1="48.9883" y1="60.9264" x2="21.6762" y2="34.929" gradientUnits="userSpaceOnUse">
<stop stop-color="#F98C32"/>
<stop offset="1" stop-color="#F98C32" stop-opacity="0"/>
</linearGradient>
<linearGradient id="paint1_linear_149_8818" x1="37.9524" y1="12.5507" x2="38.0469" y2="56.4494" gradientUnits="userSpaceOnUse">
<stop stop-color="#F98C32"/>
<stop offset="0.695833" stop-color="#9C806A"/>
<stop offset="1" stop-color="#F98C32" stop-opacity="0"/>
</linearGradient>
<linearGradient id="paint2_linear_149_8818" x1="39.6977" y1="12.5507" x2="39.7843" y2="52.6542" gradientUnits="userSpaceOnUse">
<stop stop-color="#F98C32"/>
<stop offset="0.695833" stop-color="#9C806A"/>
<stop offset="1" stop-color="#F98C32" stop-opacity="0"/>
</linearGradient>
<linearGradient id="paint3_linear_149_8818" x1="41.6186" y1="21.0229" x2="40.1053" y2="61.8832" gradientUnits="userSpaceOnUse">
<stop stop-color="#FFB859"/>
<stop offset="0.240454" stop-color="#FFB859"/>
<stop offset="0.61894" stop-color="#6C5746"/>
<stop offset="0.92136" stop-color="#FFB859" stop-opacity="0"/>
<stop offset="1" stop-color="#FFB859" stop-opacity="0"/>
</linearGradient>
<linearGradient id="paint4_linear_149_8818" x1="41.6186" y1="21.0229" x2="40.1053" y2="61.8832" gradientUnits="userSpaceOnUse">
<stop stop-color="#FFB859"/>
<stop offset="0.240454" stop-color="#FFB859"/>
<stop offset="0.61894" stop-color="#6C5746"/>
<stop offset="0.92136" stop-color="#FFB859" stop-opacity="0"/>
<stop offset="1" stop-color="#FFB859" stop-opacity="0"/>
</linearGradient>
<linearGradient id="paint5_linear_149_8818" x1="39.5126" y1="34.1585" x2="41.0252" y2="34.1585" gradientUnits="userSpaceOnUse">
<stop stop-color="#F98C32"/>
<stop offset="0.701042" stop-color="#767880"/>
<stop offset="0.994792" stop-color="#F98C32" stop-opacity="0"/>
</linearGradient>
<linearGradient id="paint6_linear_149_8818" x1="39.5134" y1="5.40502" x2="40.27" y2="5.40502" gradientUnits="userSpaceOnUse">
<stop stop-color="#F98C32"/>
<stop offset="0.701042" stop-color="#767880"/>
<stop offset="0.994792" stop-color="#F98C32" stop-opacity="0"/>
</linearGradient>
</defs>
</svg>
